# xmcd
#
# Track frame offsets:
#	150
#	13978
#	31783
#	45335
#	74818
#	92464
#	109106
#	128671
#	150120
#	175231
#
# Disc length: 2479 seconds
#
# Revision: 1
# Processed by: cddbd v1.5.1PL2 Copyright (c) Steve Scherf et al.
# Submitted via: audiograbber 1.83.01
#
DISCID=7209ad0a
DTITLE=Thomas Jackson - Thomas Jackson
DYEAR=2006
DGENRE=Blues
TTITLE0=At the Newsstand
TTITLE1=Kung Fu Grip
TTITLE2=Honey
TTITLE3=The Next Big Thing
TTITLE4=Escalator Blues
TTITLE5=My New Couch
TTITLE6=Rainin
TTITLE7=Atom Bomb Blues
TTITLE8=Teeth
TTITLE9=Vain Love
EXTD=
EXTT0=
EXTT1=
EXTT2=
EXTT3=
EXTT4=
EXTT5=
EXTT6=
EXTT7=
EXTT8=
EXTT9=
PLAYORDER=
